<?xml version="1.0" encoding="utf-8"?>
<!-- Generator: Adobe Illustrator 21.0.0, SVG Export Plug-In . SVG Version: 6.00 Build 0)  -->
<svg version="1.1" id="图层_1" xmlns="http://www.w3.org/2000/svg" xmlns:xlink="http://www.w3.org/1999/xlink" x="0px" y="0px"
	 viewBox="0 0 100 100" style="enable-background:new 0 0 100 100;" xml:space="preserve">
<style type="text/css">
	.st0{fill:#FFFFFF;}
</style>
<path d="M48,82.1c-1.6-0.2-3.9-0.5-6.1-0.7c-1.1-0.1-1.1-1.1-1.3-1.7c-0.4-0.9-0.9-0.9-1.7-1.1c-2.1-0.5-4.3-1.1-6.4-1.8
	c-1.7-0.6-2.4-2.2-3.2-3.7c-0.4-0.7-0.8-1.2-1.7-1.4c-0.4-0.1-0.9-0.4-1.1-0.8c-0.9-2.5-2.9-4.1-4.9-5.7c-1.3-1-2.1-2.3-2.5-3.8
	c-0.7-2.6-1.2-5.2-1.7-7.9c-0.3-1.3-0.4-2.5-0.6-3.8c-0.1-0.5-0.1-1,0.5-1.3c0.6-0.3,0.8-0.8,0.6-1.6c-0.5-2.1,0-4.1,0.6-6
	c0.7-2.3,1.6-4.6,2.6-6.9c0.9-2.1,2.1-4,3.8-5.5c1-0.9,1.6-0.9,2.6-0.3c0.7,0.4,1.2,0.2,1.4-0.5c0.9-3.9,4-5.8,7-7.7
	c3.1-2,6.6-2.9,10.3-3.2c0.5,0,0.9-0.2,1.4-0.3c1.4-0.3,2.9-0.6,3.8,1c0.3,0.6,0.9,0.4,1.1-0.1c0.7-1.5,1.7-1.2,2.9-0.8
	c3,1.1,6,2.2,8.9,3.4c0.9,0.4,1.7,1,1.8,2.1c0.1,0.9,0.9,1.1,1.5,1.4c1.3,0.5,2.6,1,3.9,1.6c1.2,0.6,2.2,1.5,2.3,3
	c0.1,2.8,1.4,4.8,3.6,6.4c1.5,1.1,2.2,2.7,2.9,4.3c2.1,5.3,2.5,10.9,1.4,16.5c-0.5,2.5-1.6,4.9-2.6,7.4c-1.2,3-3.1,5.5-5.2,8
	c-3,3.4-6.5,6.1-10.6,8.1C58.6,81,53.7,81.9,48,82.1z M38.4,64.2c0.2-0.8,0.3-1.4,0.4-2c0.5-1.8,1-3.7,1.5-5.5c0.3-1,0.7-1,1.5-0.5
	c1.7,1.1,3.2,2.5,5.3,2.8c3,0.5,6.1,0.8,9-0.2c1.5-0.5,2.8-1.7,4-2.7c0.6-0.5,1.2-0.5,1.8-0.2c0.3,0.1,0.7,0.3,1,0.5
	c1.3,0.7,2.1,1.6,1.7,3.2c-0.2,0.6-0.2,1.2-0.3,1.8c-0.1,1.1-0.4,2.3,0.4,3.3c0.1,0.2,0.6,0.3,0.8,0.2c0.4-0.3,0.8-0.6,0.9-1
	c0.4-1.1,0.7-2.2,0.8-3.3c0.2-2.3,0.1-3,2.9-1.5c1,0.6,2.1,1.3,3.5,0.8c0-1.4-1-2.1-2-2.8c-0.7-0.5-1.4-1.1-2.2-1.7
	c0.4-0.3,0.5-0.5,0.7-0.6c1.1-0.7,2.2-1.4,3.3-2.1c0.6-0.4,0.9-0.8,0.4-1.6c-0.5-0.7-1.2-0.8-2.4-0.4c-1.7,0.6-3.3,1.1-5,1.6
	c-0.8,0.3-1.6,0.2-2-0.7c-0.5-0.9-1-1.9-1.3-2.9c-0.3-1.1-0.4-2.3-0.6-3.5c-0.3-1.6-0.8-3.1-2.4-3.9c-1.9-0.9-3.8-1.9-5.7-2.9
	c-0.7-0.3-1.5-0.8-2.3-0.8c-2.4,0.1-4.9,0-7,1.5c-2.4,1.8-4.5,3.8-5,7c-0.2,1.1-0.4,2.1-0.6,3.2c-0.5,2.8-2,4.1-4.8,4.1
	c-1,0-2-0.2-3-0.2c-0.9,0-1.8-0.1-2.7,0.1c-0.3,0-0.7,0.6-0.8,1c0,0.2,0.5,0.6,0.8,0.7c0.6,0.3,1.2,0.4,1.8,0.6
	c0.8,0.3,0.9,1,0.3,1.6c-0.3,0.3-0.7,0.7-1,0.9c-0.8,0.5-1,1.3-0.9,2.2c0.1,1,0.9,1.4,1.7,0.8c0.4-0.3,0.9-0.6,1.3-0.9
	c1-0.6,2.1-1.2,3.2-1.6c0.6-0.3,1.1,0.1,1.1,0.8c0,0.7,0.1,1.4,0.3,2C37.1,62.4,37.3,63.4,38.4,64.2z M43.7,29.9
	c-0.2,0.5-0.4,0.9-0.7,1.3c-0.5,0.5-1,0.9-1.6,1.4c-3.3,2.5-6.7,4.9-10,7.5c-0.7,0.5-1.4,1.2-1.9,2c-0.3,0.4-0.3,1.1-0.4,1.7
	c0.5,0,1.1,0.1,1.6,0.1c0.3,0,0.6-0.2,0.8-0.4c2.2-1.7,4.4-3.5,6.6-5.2c1.2-0.9,2.4-2,3.8-2.6c2.8-1.2,5.8-2,8.7-3.1
	c1.7-0.6,3.3-0.3,4.7,0.5c2.3,1.4,4.4,3,6.6,4.6c2.2,1.7,4.3,3.5,6.5,5.2c0.8,0.6,1.9,0.9,2.9,1c1,0.2,1.3-0.3,1.2-1.3
	c-0.2-1.4-1.1-2.1-2.3-2.5c-2-0.7-3.5-1.9-4.6-3.8c-0.3-0.5-0.7-1-1.1-1.2C63,34,61.5,33.3,60,32.5c-2.2-1.1-2.5-2.3-1.2-4.4
	c0.1-0.2,0.3-0.5,0.4-0.7c0.5-0.8,0.4-1.4-0.4-2c-0.7-0.5-1.3-0.3-1.8,0.1c-0.5,0.4-0.8,0.9-1.3,1.2c-0.6,0.4-1.3,0.8-2,1.1
	c-0.2,0.1-0.8-0.2-0.9-0.4c-0.7-1.2-1.3-2.5-2-3.7c-0.2-0.3-0.6-0.6-0.9-0.6c-0.2,0-0.5,0.5-0.7,0.8c-0.5,1.1-0.9,2.3-1.4,3.4
	c-0.4,0.8-1.6,1-2.3,0.3c-0.5-0.5-1-1-1.5-1.5c-0.3-0.3-0.9-0.3-1.3-0.4c0,0.4-0.1,0.9,0,1.3C43,28.1,43.3,28.9,43.7,29.9z
	 M44.1,68.4C44,70,44.7,71.6,45.7,73c1.5,2.4,4.2,3.3,6.9,2.1c2.7-1.2,4.2-3.4,4.7-6.2c0.3-1.6,0.2-3.6-1-4.4
	c-1.9-1.2-3.8-3-6.5-1.8c-0.3,0.1-0.7,0.1-1.1,0.2C45.7,63.4,44.1,65.3,44.1,68.4z M68.7,29.6c0.3-0.5,0.5-0.7,0.6-1
	c0-0.1-0.4-0.4-0.5-0.4c-0.2,0.1-0.5,0.3-0.5,0.6C68.2,29,68.5,29.2,68.7,29.6z"/>
<path d="M89.2,63.8c0-0.3,0-0.7-0.1-1c-0.1-0.4-0.3-0.8-0.4-1.2c-0.1-0.7-0.5-0.9-1.2-0.7c-0.9,0.3-1.1,0.1-1.1-0.9
	c-0.1-2.3,1.3-3.8,2.9-5.1c0.6-0.5,1-1.1,0.4-1.8c-0.2-0.2-0.5-0.4-0.8-0.5c-0.6-0.1-0.9-0.4-1-1.1c-0.2-1.5-0.3-3,0.6-4.4
	c0.3-0.4,0.8-0.7,1.2-1c0.5-0.4,0.7-0.7-0.1-1.1c-2.7-1.3-2.3-2.1-2.1-4.6c0-0.9,0.1-1.8,0-2.7c0-0.3-0.4-0.7-0.7-0.8
	c-0.6-0.2-0.7-0.6-0.7-1.2c0-1.1,0-2.1-0.2-3.2c0-0.3-0.4-0.6-0.6-0.8c-1.8-0.9-3.1-2.3-3.9-4.2c-0.7-1.7-1.3-3.4-2-5
	c-0.1-0.2-0.4-0.4-0.6-0.5c-1.9-0.8-3.9-1.5-5.7-2.5c-4.2-2.4-8.3-4.9-12.5-7.4c-0.6-0.4-0.8-0.8-0.8-1.4c0.1-1,0-2,0-2.9
	c0-0.3-0.2-0.8-0.4-0.9c-0.2-0.1-0.7,0.1-0.9,0.3C57.5,7.8,57,8.5,56.3,9c-0.4,0.4-0.5,0.8,0,1.3c0.3,0.3,0.6,0.8,0.8,1.2
	c-0.2,0.2-0.3,0.3-0.3,0.3c-1.7-0.5-3.7,0.5-5.3-1.1c-1.1-1.1-2.6-1.3-4.1-0.7c-0.7,0.3-1.5,0.7-2.3,0.8c-0.6,0.1-1.2,0-1.7-0.1
	c-0.7-0.2-1.3-0.4-2,0.2c-0.6,0.5-1.5,0.6-2.4,0.7c-1.3,0.2-2.4,0.5-3.3,1.7c-0.6,0.9-1.6,1.4-2.7,1.6c-2,0.3-3.6,1.2-4.6,3
	c-0.2,0.3-0.5,0.6-0.8,0.6c-2.4,0.2-3.8,1.8-5,3.5c-1.6,2.2-3,4.5-4.5,6.8c-0.7,1.1-1.6,2.1-2.5,3c-1.4,1.3-5.2,1.6-6.8,0.7
	c-0.4-0.2-0.7-0.6-0.9-0.9c-1.1-2.8-1.3-5.7-0.1-8.5c0.8-1.8,2.1-2.9,3.9-3.4c1.6-0.5,2.5-1.7,3.4-2.8c3.7-4.3,7.8-8.2,12.9-10.9
	c3.4-1.8,6.8-3.3,10.6-4c1.3-0.2,2.7-0.2,4-0.3c2.2-0.2,4.3-0.5,6.5-0.7c0.6-0.1,1.2,0,1.8,0.1c3,0.8,5.9,1.1,9,0.8
	C60.6,1.6,61.3,1.8,62,2c3,1,6,2,8.9,3.3C75,7.1,78.6,9.5,81,13.4c0.1,0.2,0.4,0.6,0.6,0.6c2.2,0.3,3.6,1.8,4.9,3.3
	c2.1,2.4,3.8,5.1,5.2,8c0.3,0.6,0.9,1,1.2,1.5c0.5,0.8,1.1,1.6,1.5,2.4c0.4,0.8,0.5,1.7,0.8,2.5c0.2,0.6,0.8,1,0.9,1.6
	c0.5,1.9,1.1,3.8,1.2,5.7c0.2,3.8,0.1,7.7,0,11.5c0,1.5-0.5,2.9-0.7,4.4c-0.1,0.6-0.1,1.2,0,1.8c0.7,2.1,0.2,4.1-0.4,6
	c-0.5,1.6-1,3.1-1.6,4.6c-0.2,0.5-0.7,0.9-1.1,1.2c-0.6,0.4-1.1,0.7-1,1.5c0.4,3.3-1.6,5.5-3.6,7.6c-1.2,1.3-2.5,2.3-4.2,2.9
	c-1.5,0.6-2.5,0.2-3.5-1c-1.6-1.8-1.7-3.6-0.8-5.7c0.9-2,1.2-4.3,2.9-5.9c0,0,0.1-0.1,0.1-0.2c1.4-0.4,1.7-1.6,2-2.9
	c0.2-0.7,0.7-1.3,1-1.9c0.4-0.6,0.8-0.7,1.3-0.1c0.3,0.4,0.6,0.9,0.9,1.3C88.8,64,89,63.9,89.2,63.8z"/>
<path d="M54.5,97.8c-1.1,0.2-2-0.1-2.8-0.9c-0.5-0.5-1.1-0.5-1.8-0.2c-0.5,0.3-1.2,0.5-1.7,0.5c-2.4-0.3-4.8-0.6-7.2-1
	c-1.1-0.2-2.2-0.7-3.3-0.9c-0.3-0.1-0.8,0.1-1.1,0.2c-0.7,0.1-1.5,0.4-2.2,0.3c-2.6-0.3-4.8-1.4-6.6-3.3c-0.9-0.9-1.8-1.4-3.1-1.6
	c-1.2-0.2-2.4-1-3.4-1.8c-3.7-2.7-6.2-6.5-8.2-10.5c-0.3-0.6-0.6-0.8-1.2-0.7c-0.6,0.1-1-0.1-1.3-0.7c-1.3-2.1-2.6-4.2-3.9-6.3
	c-0.2-0.3-0.2-0.7-0.2-1c0.3-1.4-0.4-2.4-1.3-3.4c-0.7-0.7-1.4-1.4-1.9-2.3c-1-1.7,0-3.4,0.3-5.1c0.1-0.4,0.1-0.8,0-1.2
	c-0.1-1.5-0.6-3-0.4-4.5c0.4-3.3,2.6-3.8,5.3-2.5c2.6,1.2,3.7,3.5,4.2,6.1c0.4,2.1,0.7,4.2,0.9,6.3c0.1,0.7,0.2,1.1,1,1.3
	c1.4,0.5,2.3,1.6,2.8,3c0.1,0.2,0.1,0.5,0.2,0.7c0.4,1.5,0.7,2.9,2.4,3.8c1.1,0.5,1.7,2.1,2.3,3.3c0.6,1.2,1.5,2.1,2.5,2.9
	c1.1,0.8,2.2,1.7,3.2,2.6c1.3,1.1,2.9,1.7,4.5,2.2c1.2,0.4,1.9,1.1,1.9,2.4c0,0.6,0.1,1.2,0.2,1.8c0.1,0.9,0.8,1.2,1.5,0.6
	c0.8-0.8,1.7-0.8,2.8-0.6c1.9,0.3,3.9,0.1,5.8,0c2.4-0.1,4.8-0.2,7,0.9c0.3,0.2,1,0,1.4-0.2c1.5-1,3-1.8,4.8-0.7
	c0.8,0.5,1.6,0.2,2.1-0.8c0.5-1,1.2-1.4,2.4-1.3c1.7,0.2,3.2-0.7,4.5-1.6c1.8-1.3,3.5-0.9,5.4-0.2c1.8,0.7,2.1,2,2,3.6
	c-0.2,3.3-1.9,5.6-4.7,7.2c-1.8,1-3.7,1.7-5.8,1.8c-1.4,0-2.7,0.6-4.1,0.9c-1.7,0.4-3.4,0.8-5.1,1.2C54.5,97.9,54.5,97.8,54.5,97.8z
	 M30.1,86.6c1.2-0.5,1.6-1.2,1.2-1.8c-0.4-0.5-0.8-1.2-1.6-0.6C29,84.6,29.1,85.2,30.1,86.6z M16.6,79.6c-0.3,0.4-0.7,0.7-0.7,0.7
	c0.2,0.3,0.5,0.6,0.7,0.9c0.2-0.2,0.6-0.4,0.6-0.7C17.3,80.3,17,80.1,16.6,79.6z M12.8,74.2c-0.2-1-0.7-1-1.3-0.8
	c-0.1,0-0.1,0.4-0.2,0.6C11.9,74.1,12.3,74.2,12.8,74.2z"/>
<path d="M5.5,36.8c1.4,0.1,2.9,0.1,4.3,0.3c1.3,0.2,1.8,0.7,1.6,2c-0.1,1.5-0.5,2.9-0.8,4.3c-0.1,0.2-0.5,0.5-0.8,0.6
	c-0.5,0.2-1.2,0.1-1.6,0.4c-0.9,0.5-1.6,0.2-2.3-0.3c-2.1-1.6-3.1-4-1.8-6.3C4.4,37,4.3,37,5.5,36.8z"/>
<path class="st0" d="M38.4,64.2c-1.2-0.8-1.3-1.8-1.6-2.8c-0.2-0.7-0.2-1.3-0.3-2c-0.1-0.8-0.5-1.1-1.1-0.8
	c-1.1,0.5-2.1,1.1-3.2,1.6c-0.5,0.3-0.9,0.6-1.3,0.9c-0.8,0.5-1.6,0.1-1.7-0.8c-0.1-0.9,0.1-1.6,0.9-2.2c0.4-0.3,0.7-0.6,1-0.9
	c0.6-0.6,0.5-1.3-0.3-1.6c-0.6-0.3-1.2-0.4-1.8-0.6c-0.3-0.2-0.9-0.6-0.8-0.7c0.1-0.4,0.5-0.9,0.8-1c0.9-0.1,1.8-0.1,2.7-0.1
	c1,0,2,0.2,3,0.2c2.9,0,4.3-1.3,4.8-4.1c0.2-1.1,0.4-2.1,0.6-3.2c0.5-3.2,2.6-5.2,5-7c2.1-1.5,4.6-1.4,7-1.5c0.7,0,1.5,0.4,2.3,0.8
	c1.9,0.9,3.8,1.9,5.7,2.9c1.7,0.8,2.1,2.3,2.4,3.9c0.2,1.2,0.2,2.4,0.6,3.5c0.3,1,0.8,1.9,1.3,2.9c0.4,0.8,1.2,0.9,2,0.7
	c1.7-0.5,3.3-1,5-1.6c1.2-0.4,1.9-0.3,2.4,0.4c0.5,0.7,0.2,1.2-0.4,1.6c-1.1,0.7-2.2,1.4-3.3,2.1c-0.2,0.1-0.3,0.3-0.7,0.6
	c0.8,0.6,1.5,1.2,2.2,1.7c1,0.7,2,1.4,2,2.8c-1.4,0.5-2.4-0.3-3.5-0.8c-2.8-1.5-2.7-0.7-2.9,1.5c-0.1,1.1-0.4,2.2-0.8,3.3
	c-0.1,0.4-0.6,0.7-0.9,1c-0.2,0.1-0.6,0-0.8-0.2c-0.8-1-0.5-2.2-0.4-3.3c0.1-0.6,0.2-1.2,0.3-1.8c0.4-1.6-0.4-2.5-1.7-3.2
	c-0.3-0.2-0.6-0.4-1-0.5c-0.7-0.3-1.2-0.3-1.8,0.2c-1.3,1-2.6,2.2-4,2.7c-2.9,1-6,0.7-9,0.2c-2.1-0.3-3.6-1.7-5.3-2.8
	c-0.8-0.6-1.2-0.5-1.5,0.5c-0.6,1.8-1,3.7-1.5,5.5C38.7,62.8,38.6,63.4,38.4,64.2z M50.7,57c5.3,0.1,8.5-3.1,9.2-8
	c0.2-1.5-0.1-2.8-1.3-3.8c-1.2-1.1-2.4-2.2-3.3-3.4c-0.8-1-1.7-1.4-2.9-1.6c-1.8-0.3-3.4,0.7-5,1.2c-1.5,0.4-2.5,1.5-3.1,2.9
	c-0.4,0.8-0.7,1.6-1.1,2.4c-1.3,2.5-0.8,3.7,1,5.2c0.8,0.6,1.2,1.4,1.3,2.4c0,0.5,0.1,1,0.3,1.5c0.1,0.3,0.4,0.6,0.6,0.6
	C47.8,56.6,49.3,56.8,50.7,57z"/>
<path class="st0" d="M43.7,29.9c-0.3-1-0.6-1.9-0.8-2.8c-0.1-0.4,0-0.9,0-1.3c0.4,0.1,0.9,0.2,1.3,0.4c0.6,0.4,1,1,1.5,1.5
	c0.7,0.6,1.9,0.5,2.3-0.3c0.5-1.1,0.9-2.3,1.4-3.4c0.1-0.3,0.5-0.8,0.7-0.8c0.3,0,0.8,0.3,0.9,0.6c0.7,1.2,1.3,2.5,2,3.7
	c0.1,0.2,0.7,0.5,0.9,0.4c0.7-0.3,1.4-0.7,2-1.1c0.5-0.4,0.8-0.9,1.3-1.2c0.5-0.4,1.2-0.7,1.8-0.1c0.7,0.6,0.9,1.2,0.4,2
	c-0.1,0.2-0.2,0.5-0.4,0.7c-1.4,2-1,3.3,1.2,4.4c1.5,0.7,2.9,1.5,4.3,2.3c0.5,0.3,0.9,0.8,1.1,1.2c1,1.9,2.6,3.1,4.6,3.8
	c1.2,0.4,2.1,1.2,2.3,2.5c0.2,1-0.1,1.5-1.2,1.3c-1-0.2-2.1-0.4-2.9-1c-2.2-1.6-4.3-3.5-6.5-5.2c-2.1-1.6-4.3-3.2-6.6-4.6
	c-1.4-0.8-3-1.1-4.7-0.5c-2.9,1-5.9,1.9-8.7,3.1c-1.4,0.6-2.6,1.7-3.8,2.6c-2.2,1.7-4.4,3.5-6.6,5.2c-0.2,0.2-0.5,0.4-0.8,0.4
	c-0.5,0-1.1-0.1-1.6-0.1c0.1-0.6,0.1-1.2,0.4-1.7c0.5-0.7,1.2-1.4,1.9-2c3.3-2.5,6.6-5,10-7.5c0.6-0.4,1.1-0.9,1.6-1.4
	C43.2,30.9,43.4,30.4,43.7,29.9z"/>
<path class="st0" d="M44.1,68.4c0-3.1,1.7-5.1,4.5-5.5c0.4-0.1,0.8,0,1.1-0.2c2.7-1.2,4.7,0.6,6.5,1.8c1.2,0.8,1.4,2.8,1,4.4
	c-0.6,2.8-2,4.9-4.7,6.2c-2.7,1.3-5.3,0.3-6.9-2.1C44.7,71.6,44,70,44.1,68.4z M46.9,69.6c0,0.6,2.2,2.6,2.9,2.6
	c1.7-0.2,3.4-0.5,4.7-1.8c0.3-0.3,0.7-0.8,0.7-1.2c0.1-1.6-0.7-2.8-1.9-3.8c-1.1-0.9-2.2-0.8-3.4,0C48.4,66.4,47,67.5,46.9,69.6z"/>
<path class="st0" d="M68.7,29.6c-0.2-0.4-0.5-0.6-0.4-0.8c0.1-0.2,0.3-0.5,0.5-0.6c0.1,0,0.5,0.3,0.5,0.4
	C69.2,28.9,69,29.2,68.7,29.6z"/>
<path class="st0" d="M30.1,86.6c-1-1.4-1.1-2.1-0.4-2.5c0.8-0.5,1.2,0.1,1.6,0.6C31.7,85.4,31.3,86.1,30.1,86.6z"/>
<path class="st0" d="M16.6,79.6c0.3,0.5,0.7,0.7,0.7,1c0,0.2-0.4,0.4-0.6,0.7c-0.3-0.3-0.5-0.6-0.7-0.9C15.9,80.3,16.3,80,16.6,79.6
	z"/>
<path class="st0" d="M12.8,74.2c-0.5-0.1-0.9-0.1-1.4-0.2c0.1-0.2,0.1-0.5,0.2-0.6C12.1,73.2,12.6,73.2,12.8,74.2z"/>
<path d="M50.7,57c-1.5-0.2-2.9-0.4-4.4-0.7c-0.2,0-0.5-0.4-0.6-0.6c-0.2-0.5-0.2-1-0.3-1.5c-0.1-1-0.6-1.8-1.3-2.4
	c-1.8-1.5-2.3-2.7-1-5.2c0.4-0.8,0.7-1.6,1.1-2.4c0.7-1.4,1.6-2.4,3.1-2.9c1.7-0.5,3.2-1.5,5-1.2c1.1,0.2,2.1,0.5,2.9,1.6
	c1,1.3,2.2,2.4,3.3,3.4c1.2,1.1,1.5,2.3,1.3,3.8C59.2,53.9,56.1,57.2,50.7,57z M53.6,48.9c0-0.1,0-0.5-0.1-0.9
	c-0.3-1.1-0.9-1.9-2.1-2.2c-1.1-0.2-1.6,0.5-2.2,1.2c-0.1,0.1-0.2,0.2-0.3,0.4c-0.7,0.9-0.8,2.3-0.3,3.2c0.6,1,2.3,1.4,3.6,1
	C53.1,51.4,53.6,50.4,53.6,48.9z"/>
<path d="M46.9,69.6c0-2.1,1.4-3.2,3-4.3c1.2-0.8,2.3-0.9,3.4,0c1.2,1,1.9,2.2,1.9,3.8c0,0.4-0.4,0.8-0.7,1.2
	c-1.2,1.4-2.9,1.7-4.7,1.8C49.1,72.3,46.9,70.2,46.9,69.6z"/>
<path class="st0" d="M53.6,48.9c0,1.5-0.5,2.5-1.4,2.8c-1.3,0.4-3-0.1-3.6-1c-0.6-0.9-0.5-2.3,0.3-3.2c0.1-0.1,0.2-0.2,0.3-0.4
	c0.6-0.7,1.1-1.4,2.2-1.2c1.2,0.3,1.8,1.1,2.1,2.2C53.6,48.4,53.6,48.8,53.6,48.9z"/>
</svg>
